<?xml version="1.0" encoding="UTF-8" standalone="no"?>
<!DOCTYPE svg PUBLIC "-//W3C//DTD SVG 1.1//EN" "http://www.w3.org/Graphics/SVG/1.1/DTD/svg11.dtd">
<svg width="100%" height="100%" viewBox="0 0 1000 556" version="1.1" xmlns="http://www.w3.org/2000/svg" xmlns:xlink="http://www.w3.org/1999/xlink" xml:space="preserve" xmlns:serif="http://www.serif.com/" style="fill-rule:evenodd;clip-rule:evenodd;stroke-linejoin:round;stroke-miterlimit:2;">
    <g transform="matrix(5.55556,0,0,5.55556,0,0)">
        <g transform="matrix(1,0,0,1,11.95,81.3)">
            <path d="M12.81,-21.521C17.832,-14.245 22.341,-6.866 26.235,0.717C26.747,1.64 27.465,1.64 28.08,0.922C29.617,-1.025 30.539,-4.612 28.08,-10.453C26.85,-13.322 24.083,-18.036 20.803,-23.263C34.638,-32.999 48.576,-45.501 53.187,-51.752C56.876,-56.774 56.979,-60.258 56.364,-62.513C55.954,-63.435 55.134,-63.538 54.417,-62.718C44.681,-52.162 30.334,-39.352 16.909,-29.309C20.598,-36.175 23.98,-42.222 26.645,-47.038C30.846,-54.724 30.334,-59.643 29.002,-62C28.182,-63.333 27.465,-63.435 26.542,-62.205C20.291,-53.495 2.664,-18.754 0.102,-10.043C-1.742,-3.894 -0.922,-0.922 0.615,1.23C1.23,2.05 1.845,1.845 2.255,0.922C5.636,-6.969 9.223,-14.655 12.81,-21.521Z" style="fill-rule:nonzero;"/>
            <g transform="matrix(1,0,0,1,36.58,0)">
                <path d="M41.299,-17.832C35.766,-8.198 29.617,-1.435 26.03,-1.537C23.058,-1.64 22.751,-5.124 25.518,-10.965C28.08,-16.397 33.204,-24.185 35.458,-28.797C37.918,-33.921 37.098,-38.43 35.663,-40.275C34.741,-41.197 34.126,-40.992 33.101,-39.66C29.719,-35.253 26.747,-28.182 20.189,-17.729C14.655,-8.813 10.863,-1.947 6.764,-1.845C4.407,-1.742 4.304,-5.329 6.354,-10.35C8.403,-15.27 11.068,-20.086 14.757,-25.927C18.549,-31.974 19.061,-36.38 16.602,-39.762C15.987,-40.685 14.962,-40.787 14.142,-39.66C7.276,-30.334 2.255,-20.291 -0.102,-13.527C-2.767,-5.944 -1.64,0.717 4.714,1.127C9.633,1.435 13.937,-2.664 17.217,-6.866C16.909,-2.46 19.369,1.537 23.775,1.64C30.642,1.845 37.918,-6.046 44.886,-17.729C51.24,-28.489 52.982,-33.101 53.802,-37.2C54.212,-39.352 53.597,-40.89 52.265,-40.685C50.113,-40.275 43.042,-33.511 41.299,-17.832Z" style="fill-rule:nonzero;"/>
            </g>
            <g transform="matrix(1,0,0,1,86.28,0)">
                <path d="M23.775,-47.038C22.443,-49.805 19.471,-51.035 17.832,-49.293C16.192,-47.551 15.679,-44.476 17.319,-41.709C18.856,-39.045 21.726,-38.737 23.058,-40.172C24.39,-41.607 25.108,-44.374 23.775,-47.038ZM7.071,1.537C12.81,1.537 19.266,-2.767 22.341,-9.121C23.57,-11.683 23.878,-13.835 23.058,-15.474C22.648,-16.294 21.931,-16.397 21.418,-15.474C18.344,-8.403 12.708,-1.64 8.096,-1.435C4.817,-1.23 4.612,-5.226 7.071,-11.17C9.223,-16.294 13.527,-23.263 15.679,-27.772C18.139,-32.896 17.319,-37.303 15.782,-38.942C14.962,-39.865 14.245,-39.557 13.322,-38.328C9.531,-32.999 2.767,-20.906 0.205,-13.425C-2.664,-5.022 -0.717,1.537 7.071,1.537Z" style="fill-rule:nonzero;"/>
                <path d="M39.25,-35.561C42.017,-40.582 46.014,-47.756 48.473,-51.957C52.777,-59.438 52.982,-63.538 51.445,-66.612C50.83,-67.842 49.805,-67.739 48.883,-66.51C39.762,-54.109 22.751,-20.394 19.881,-11.068C17.934,-4.817 18.446,-1.537 19.984,0.205C20.701,1.025 21.521,0.82 21.828,0C29.719,-18.856 34.331,-27.875 42.017,-33.716C47.448,-37.918 51.957,-39.045 53.085,-37.2C54.622,-34.536 47.858,-25.62 35.151,-21.418C33.204,-20.803 32.999,-20.496 32.999,-18.651C32.794,-4.817 38.84,1.025 46.014,1.127C54.109,1.23 58.824,-5.329 61.283,-9.633C62.82,-12.195 63.025,-14.655 62.513,-15.884C62,-17.114 61.078,-17.012 60.463,-15.782C57.389,-9.428 51.752,-1.537 47.551,-1.947C43.656,-2.357 40.787,-8.198 40.377,-16.602C46.833,-18.549 51.138,-21.521 54.622,-24.903C58.414,-28.592 58.721,-32.896 56.774,-36.893C54.724,-41.197 52.265,-42.734 48.371,-41.402C45.706,-40.48 42.529,-38.737 39.25,-35.561Z" style="fill-rule:nonzero;"/>
            </g>
        </g>
    </g>
</svg>
