<svg id="Layer_1" data-name="Layer 1" xmlns="http://www.w3.org/2000/svg" viewBox="0 0 168 174"><defs><style>.cls-1{stroke:#000;stroke-miterlimit:10;}</style></defs><path class="cls-1" d="M102.45,177.93a26.88,26.88,0,0,0,8.22,39.64,14.11,14.11,0,0,0,7.16,2h50.06l-1.25,25.8a22.64,22.64,0,0,0,13.56,21.87,22.29,22.29,0,0,0,8.86,1.81,24.3,24.3,0,0,0,23.34-17.86l17.93-65.29h27a6.69,6.69,0,0,0,6.68-6.72V102.72A6.69,6.69,0,0,0,257.32,96H131.8a13.88,13.88,0,0,0-5.53,1.13,27.11,27.11,0,0,0-15.22,32.63,27.15,27.15,0,0,0-4.32,24.07,27.1,27.1,0,0,0-5.45,16.32,28.79,28.79,0,0,0,1.17,7.78ZM249,111.11v59.62H232.06V111.11ZM116.12,185.22l4.57-4-2.9-5.33a11.83,11.83,0,0,1-1.44-5.73,12,12,0,0,1,4.09-9l4.57-4-2.9-5.33a12.05,12.05,0,0,1,2.65-14.76l4.57-4-2.9-5.33a12,12,0,0,1,5.58-16.6H218.7v60.27l-20.77,75.67a9.33,9.33,0,0,1-3.28,4.88,9.14,9.14,0,0,1-5.53,1.9,7.3,7.3,0,0,1-4.4-1.4,7.47,7.47,0,0,1-3.05-6.41l2-41.64H118a12.18,12.18,0,0,1-6-10.16A12,12,0,0,1,116.12,185.22Z" transform="translate(-96.5 -95.5)"/></svg>