<svg id="Layer_1" data-name="Layer 1" xmlns="http://www.w3.org/2000/svg" viewBox="0 0 168 174"><defs><style>.cls-1{stroke:#000;stroke-miterlimit:10;}</style></defs><path class="cls-1" d="M258.55,187.07a26.88,26.88,0,0,0-8.22-39.64,14.11,14.11,0,0,0-7.16-2H193.11l1.25-25.8A22.64,22.64,0,0,0,180.8,97.81,22.29,22.29,0,0,0,171.94,96a24.3,24.3,0,0,0-23.34,17.86l-17.93,65.29h-27A6.69,6.69,0,0,0,97,185.87v76.41a6.69,6.69,0,0,0,6.68,6.72H229.2a13.88,13.88,0,0,0,5.53-1.13A27.11,27.11,0,0,0,250,235.24a27.15,27.15,0,0,0,4.32-24.07,27.1,27.1,0,0,0,5.45-16.32,28.79,28.79,0,0,0-1.17-7.78ZM112,253.89V194.27h16.91v59.62Zm132.85-74.11-4.57,4,2.9,5.33a11.83,11.83,0,0,1,1.44,5.73,12,12,0,0,1-4.09,9l-4.57,4,2.9,5.33a12.05,12.05,0,0,1-2.65,14.76l-4.57,4,2.9,5.33a12,12,0,0,1-5.58,16.6H142.3V193.59l20.77-75.67a9.33,9.33,0,0,1,3.28-4.88,9.14,9.14,0,0,1,5.53-1.9,7.3,7.3,0,0,1,4.4,1.4,7.47,7.47,0,0,1,3.05,6.41l-2,41.64H243a12.18,12.18,0,0,1,6,10.16A12,12,0,0,1,244.88,179.78Z" transform="translate(-96.5 -95.5)"/></svg>